<?xml version="1.0" standalone="no"?>
<!DOCTYPE svg PUBLIC "-//W3C//DTD SVG 1.1//EN" "http://www.w3.org/Graphics/SVG/1.1/DTD/svg11.dtd">
<svg width="100%" height="100%" viewBox="0 0 1500 450" version="1.1" xmlns="http://www.w3.org/2000/svg" xmlns:xlink="http://www.w3.org/1999/xlink" xml:space="preserve" style="fill-rule:evenodd;clip-rule:evenodd;stroke-miterlimit:1.41421;">
    <g id="Layer1">
        <g>
            <path d="M313.634,284.537L314.078,284.537C318.743,291.867 329.182,296.976 342.287,296.976C366.499,296.976 391.82,278.317 391.82,238.78C391.82,204.129 370.275,183.472 346.508,183.472C330.737,183.472 318.521,189.469 310.302,201.019L309.858,201.019L308.303,185.915L278.761,185.915C279.205,196.133 279.649,208.127 279.649,222.343L279.649,338.512L313.634,338.512L313.634,284.537ZM314.3,254.995C313.856,252.996 313.634,250.552 313.634,247.887L313.634,233.005C313.634,231.006 313.856,228.785 314.3,227.008C316.521,217.234 324.962,209.904 334.513,209.904C349.617,209.904 357.392,223.009 357.392,240.335C357.392,258.771 348.729,271.21 334.069,271.21C324.296,271.21 316.521,264.102 314.3,254.995Z" style="fill:black;fill-rule:nonzero;"/>
            <path d="M394.956,263.88C394.956,281.205 408.061,296.976 430.051,296.976C442.934,296.976 454.04,292.311 461.148,283.87L461.814,283.87L463.813,294.532L494.244,294.532C493.133,288.313 492.467,278.54 492.467,268.1L492.467,230.339C492.467,204.796 481.139,183.472 444.933,183.472C425.164,183.472 410.282,188.803 402.73,193.245L408.949,214.791C416.279,210.571 427.607,206.572 438.714,206.572C455.595,206.572 458.704,214.791 458.704,220.566L458.704,222.121C420.278,222.121 394.956,235.448 394.956,263.88ZM428.274,260.326C428.274,247.443 441.823,243.222 459.815,243L459.815,255.217C459.815,256.994 459.815,259.215 459.149,260.77C456.927,267.656 450.042,273.209 441.823,273.209C434.049,273.209 428.274,268.988 428.274,260.326Z" style="fill:black;fill-rule:nonzero;"/>
            <path d="M501.424,289.201C509.421,293.644 522.304,296.976 536.519,296.976C567.616,296.976 583.609,281.871 583.609,261.658C583.387,245.666 574.724,235.226 554.067,228.118C540.74,223.454 536.519,220.788 536.519,215.679C536.519,210.349 541.184,206.795 549.402,206.795C558.731,206.795 568.06,210.571 572.947,213.014L578.944,189.691C572.281,186.36 560.953,183.472 548.292,183.472C521.193,183.472 504.09,198.576 504.09,219.011C504.09,231.894 512.53,244.111 535.187,251.663C547.403,255.883 550.957,258.549 550.957,264.102C550.957,269.877 546.515,273.209 536.297,273.209C526.524,273.209 513.641,268.766 507.422,264.99L501.424,289.201Z" style="fill:black;fill-rule:nonzero;"/>
            <path d="M593.408,294.532L627.392,294.532L627.392,260.548L635.833,249.886L662.265,294.532L703.802,294.532L659.378,230.117L698.249,185.915L657.601,185.915L635.611,218.789C632.945,222.787 630.502,227.23 627.837,231.672L627.392,231.672L627.392,136.827L593.408,136.827L593.408,294.532Z" style="fill:black;fill-rule:nonzero;"/>
            <path d="M728.013,309.192C722.682,312.302 717.573,314.079 713.353,315.189L720.461,343.621C728.901,342.51 741.562,338.956 753.113,328.739C765.329,317.855 775.769,300.53 791.317,257.438L816.639,185.915L780.433,185.915L767.106,239.224C765.551,245.444 763.774,253.662 762.442,259.437L761.553,259.437C759.998,253.662 757.999,245.666 756.222,239.224L740.007,185.915L702.469,185.915L742.229,285.425C743.561,287.869 743.783,289.646 743.783,290.978C743.783,292.311 743.117,294.088 741.784,295.643C738.897,301.196 733.122,306.527 728.013,309.192Z" style="fill:black;fill-rule:nonzero;"/>
        </g>
        <g>
            <path d="M847.799,318.189L842.913,333.293C851.798,338.846 865.791,341.955 878.896,341.955C892.446,341.955 907.55,338.846 917.99,329.072C928.429,319.743 933.316,304.861 933.316,279.984L933.316,217.568C933.316,204.463 933.76,195.8 934.204,188.026L917.101,188.026L916.213,204.241L915.768,204.241C911.104,195.356 900.886,185.583 882.228,185.583C857.573,185.583 833.806,206.24 833.806,242.668C833.806,272.432 852.686,295.088 879.563,295.088C896,295.088 907.994,287.092 913.769,277.096L914.214,277.096L914.214,289.091C914.214,316.189 899.554,326.851 879.563,326.851C866.236,326.851 855.129,322.631 847.799,318.189ZM853.575,241.557C853.575,216.679 866.902,200.909 885.338,200.909C899.776,200.909 909.327,210.238 912.881,221.566C913.547,224.232 913.991,227.119 913.991,230.451L913.991,249.775C913.991,253.107 913.547,256.883 912.437,260.215C908.216,272.654 897.332,280.428 885.338,280.428C864.236,280.428 853.575,262.658 853.575,241.557Z" style="fill:rgb(154,31,31);fill-rule:nonzero;stroke-width:6.25px;stroke:rgb(154,31,31);"/>
            <path d="M957.809,295.532L977.356,295.532L977.356,238.225C977.356,235.115 977.578,231.784 978.244,229.118C980.91,214.458 990.683,204.019 1004.45,204.019C1007.12,204.019 1009.12,204.241 1011.12,204.685L1011.12,186.249C1009.34,185.805 1007.79,185.583 1005.56,185.583C992.46,185.583 980.687,194.69 975.579,209.349L974.912,209.349L974.246,188.026L956.921,188.026C957.587,198.243 957.809,208.905 957.809,221.566L957.809,295.532Z" style="fill:rgb(154,31,31);fill-rule:nonzero;stroke-width:6.25px;stroke:rgb(154,31,31);"/>
            <path d="M1030,250.886C1030,285.315 1045.99,297.976 1066.87,297.976C1086.86,297.976 1097.74,286.203 1102.63,277.985L1103.08,277.985L1104.19,295.532L1121.29,295.532C1120.85,286.87 1120.4,277.54 1120.4,266.212L1120.4,188.026L1101.08,188.026L1101.08,253.996C1101.08,257.328 1100.41,261.104 1099.3,264.213C1096.41,272.21 1087.31,281.983 1073.09,281.983C1056.21,281.983 1049.32,268.434 1049.32,247.554L1049.32,188.026L1030,188.026L1030,250.886Z" style="fill:rgb(154,31,31);fill-rule:nonzero;stroke-width:6.25px;stroke:rgb(154,31,31);"/>
            <path d="M1144.27,295.532L1161.38,295.532L1162.27,277.985L1162.71,277.985C1170.93,291.978 1183.37,297.976 1198.92,297.976C1222.68,297.976 1247.12,278.873 1247.12,240.446C1247.34,208.017 1228.46,185.583 1201.8,185.583C1184.48,185.583 1172.04,193.357 1165.15,205.351L1164.71,205.351L1164.71,137.827L1145.16,137.827L1145.16,267.989C1145.16,277.54 1144.94,288.202 1144.27,295.532ZM1165.6,259.549C1164.93,257.328 1164.71,254.884 1164.71,252.441L1164.71,233.338C1164.71,230.007 1165.38,227.563 1165.82,225.12C1169.82,210.238 1182.26,201.131 1195.36,201.131C1216.46,201.131 1227.57,219.567 1227.57,241.113C1227.57,265.768 1215.58,282.427 1194.92,282.427C1180.7,282.427 1169.37,273.32 1165.6,259.549Z" style="fill:rgb(154,31,31);fill-rule:nonzero;stroke-width:6.25px;stroke:rgb(154,31,31);"/>
            <path d="M1264,243.778C1264,275.986 1283.77,297.976 1316.86,297.976C1333.74,297.976 1345.96,294.2 1352.62,291.09L1349.29,277.096C1341.96,280.206 1333.52,282.649 1319.31,282.649C1299.76,282.649 1283.1,271.765 1282.66,245.333L1357.95,245.333C1358.62,243.112 1358.84,240.446 1358.84,236.226C1358.84,216.457 1349.51,185.583 1314.64,185.583C1283.1,185.583 1264,211.126 1264,243.778ZM1282.88,231.339C1284.43,217.79 1293.1,199.798 1312.86,199.798C1334.85,199.798 1340.19,219.123 1339.96,231.339L1282.88,231.339Z" style="fill:rgb(154,31,31);fill-rule:nonzero;stroke-width:6.25px;stroke:rgb(154,31,31);"/>
            <path d="M1382.83,295.532L1402.38,295.532L1402.38,238.225C1402.38,235.115 1402.6,231.784 1403.27,229.118C1405.93,214.458 1415.71,204.019 1429.48,204.019C1432.14,204.019 1434.14,204.241 1436.14,204.685L1436.14,186.249C1434.36,185.805 1432.81,185.583 1430.59,185.583C1417.48,185.583 1405.71,194.69 1400.6,209.349L1399.94,209.349L1399.27,188.026L1381.94,188.026C1382.61,198.243 1382.83,208.905 1382.83,221.566L1382.83,295.532Z" style="fill:rgb(154,31,31);fill-rule:nonzero;stroke-width:6.25px;stroke:rgb(154,31,31);"/>
        </g>
        <g>
            <path d="M265.578,105.825C265.578,105.825 237.495,162.809 233.61,188.492C229.926,212.85 231.651,245.591 231.623,246.142C231.505,248.472 237.971,289.947 200.32,321.063C162.669,352.178 118.914,337.061 117.939,336.41C116.963,335.76 64.6251,320.929 59.6745,262.898C54.7239,204.867 101.357,182.034 101.942,181.449C102.527,180.863 124.966,171.609 138.624,170.829C152.282,170.048 176.867,164.864 202.037,150.425C227.207,135.986 266.096,106.102 265.578,105.825Z" style="fill:rgb(154,31,31);"/>
            <circle cx="141.706" cy="257.843" r="86.5767" style="fill:rgb(154,31,31);"/>
        </g>
    </g>
</svg>
